<?xml version="1.0" encoding="UTF-8"?>
<!--Generator: Apple Native CoreSVG 175.5-->
<!DOCTYPE svg
PUBLIC "-//W3C//DTD SVG 1.1//EN"
       "http://www.w3.org/Graphics/SVG/1.1/DTD/svg11.dtd">
<svg version="1.1" xmlns="http://www.w3.org/2000/svg" xmlns:xlink="http://www.w3.org/1999/xlink" width="402.5" height="522.25">
 <g>
  <rect height="522.25" opacity="0" width="402.5" x="0" y="0"/>
  <path d="M291.75 119.5C254.5 119.5 224 142.25 204.5 142.25C183.75 142.25 156.75 121 124.25 121C62.5 121 0 172 0 268C0 328 23 391.25 51.75 432C76.25 466.5 97.75 494.75 128.75 494.75C159.25 494.75 172.75 474.5 210.75 474.5C249.25 474.5 258 494.25 291.75 494.25C325.25 494.25 347.5 463.5 368.75 433.25C392.25 398.5 402.25 364.75 402.5 363C400.5 362.5 336.5 336.25 336.5 263C336.5 199.5 386.75 171 389.75 168.75C356.5 121 305.75 119.5 291.75 119.5ZM274.25 79C289.5 60.5 300.25 35.25 300.25 9.75C300.25 6.25 300 2.75 299.5 0C274.5 1 244.5 16.5 226.75 37.5C212.5 53.5 199.5 79 199.5 104.5C199.5 108.5 200.25 112.25 200.5 113.5C202 113.75 204.5 114.25 207.25 114.25C229.5 114.25 257.5 99.25 274.25 79Z" fill="#000000" fill-opacity="0.85"/>
 </g>
</svg>
